<?xml version="1.0" encoding="utf-8"?>
<!-- Generator: Adobe Illustrator 20.1.0, SVG Export Plug-In . SVG Version: 6.00 Build 0)  -->
<svg version="1.1" id="Layer_1" xmlns="http://www.w3.org/2000/svg" xmlns:xlink="http://www.w3.org/1999/xlink" x="0px" y="0px"
	 viewBox="0 0 529.6 230.5" style="enable-background:new 0 0 529.6 230.5;" xml:space="preserve">
<style type="text/css">
	.st0{fill:#9C552A;}
	.st1{fill:#2E2A25;}
	.st2{fill:#717271;}
</style>
<path class="st0" d="M0,147.2l26.8-31c17.3,13.2,36.2,20.2,56.2,20.2c13.1,0,20.1-4.3,20.1-11.5v-0.5c0-7.2-5.7-10.8-29.5-16.4
	C36.7,99.8,8.2,89.7,8.2,55.3v-0.5C8.2,23.6,33.7,1,75.3,1c29.5,0,52.5,7.7,71.3,22.4l-24,32.9c-15.9-11.1-33.2-16.6-48.6-16.6
	c-11.6,0-17.3,4.6-17.3,10.8V51c0,7.7,5.9,11.1,30.2,16.4c39.6,8.4,64.4,20.9,64.4,52.4v0.5c0,34.4-28,54.8-70.1,54.8
	C50.5,175.1,21.6,165.7,0,147.2z"/>
<path class="st0" d="M122.1,3.9h50.8l30.2,97.4l33.4-97.9H278l33.4,97.9l30.2-97.4h49.8l-58,169.6h-41.9l-34.7-96.9L222,173.4h-41.9
	L122.1,3.9z"/>
<g>
	<path class="st1" d="M3,224.8l1.7-1.9c3.8,3.5,7.4,5.2,12.5,5.2c5.2,0,8.8-2.9,8.8-6.9V221c0-3.7-1.9-5.8-9.9-7.4
		c-8.4-1.7-11.8-4.5-11.8-9.8v-0.1c0-5.2,4.7-9.2,11.2-9.2c5.1,0,8.4,1.4,12,4.2l-1.6,2c-3.3-2.8-6.6-3.9-10.4-3.9
		c-5.1,0-8.5,2.9-8.5,6.6v0.1c0,3.7,1.9,5.9,10.2,7.6c8.1,1.6,11.5,4.5,11.5,9.6v0.1c0,5.6-4.8,9.5-11.6,9.5
		C11.5,230.4,7.2,228.6,3,224.8z"/>
	<path class="st1" d="M46,197.4H33.9V195h26.9v2.4H48.6v32.5H46V197.4z"/>
	<path class="st1" d="M64.4,212.6L64.4,212.6c0-9.6,7-18.1,17.6-18.1s17.5,8.4,17.5,17.9v0.1c0,9.5-7,18-17.6,18
		S64.4,222.1,64.4,212.6z M96.7,212.6L96.7,212.6c0-8.7-6.3-15.8-14.9-15.8c-8.6,0-14.8,7-14.8,15.6v0.1c0,8.6,6.3,15.7,14.9,15.7
		S96.7,221.2,96.7,212.6z"/>
	<path class="st1" d="M108.3,195h2.4l24.1,30.3V195h2.5v34.9h-1.9l-24.6-31v31h-2.5V195z"/>
	<path class="st1" d="M147.6,195h24.8v2.4h-22.2v13.7h20v2.4h-20v14h22.5v2.4h-25.1V195z"/>
	<path class="st1" d="M178.3,195h2.9l11,31l10.2-31.1h2l10.2,31.1l11-31h2.7l-12.7,35.1h-2.1l-10.2-30.3L193,230.2H191L178.3,195z"
		/>
	<path class="st1" d="M244.7,194.8h2.5l16.2,35.1h-2.8l-4.4-9.8h-20.6l-4.4,9.8h-2.7L244.7,194.8z M255,217.8l-9.2-20.2l-9.2,20.2
		H255z"/>
	<path class="st1" d="M270.8,195h2.6v32.5h20.5v2.4h-23.1V195z"/>
	<path class="st1" d="M301.6,195h2.6v32.5h20.5v2.4h-23.1V195z"/>
	<path class="st1" d="M345.8,212.6L345.8,212.6c0-9.5,6.8-18.1,17.2-18.1c5.7,0,9.3,1.7,12.8,4.6l-1.7,1.9
		c-2.7-2.4-5.9-4.2-11.2-4.2c-8.5,0-14.4,7.2-14.4,15.6v0.1c0,9,5.6,15.7,14.9,15.7c4.4,0,8.6-1.8,11.1-4v-10h-11.7v-2.4h14.1v13.4
		c-3.1,2.8-8,5.2-13.7,5.2C352.4,230.5,345.8,222.4,345.8,212.6z"/>
	<path class="st1" d="M386.4,195h14.6c4.3,0,7.7,1.3,9.8,3.4c1.6,1.6,2.6,4,2.6,6.5v0.1c0,5.8-4.3,9.2-10.2,10l11.5,14.9h-3.3
		l-11.1-14.4H389v14.4h-2.6V195z M400.8,213.1c5.8,0,10.2-2.9,10.2-8v-0.1c0-4.7-3.7-7.6-10-7.6H389v15.7H400.8z"/>
	<path class="st1" d="M420.9,212.6L420.9,212.6c0-9.6,7-18.1,17.6-18.1s17.5,8.4,17.5,17.9v0.1c0,9.5-7,18-17.6,18
		S420.9,222.1,420.9,212.6z M453.3,212.6L453.3,212.6c0-8.7-6.3-15.8-14.9-15.8c-8.6,0-14.8,7-14.8,15.6v0.1
		c0,8.6,6.3,15.7,14.9,15.7C447.1,228.2,453.3,221.2,453.3,212.6z"/>
	<path class="st1" d="M464.3,215.4V195h2.6v20.1c0,8.2,4.4,13,11.8,13c7.1,0,11.6-4.3,11.6-12.7V195h2.6v20.1
		c0,10-5.8,15.3-14.3,15.3C470.2,230.5,464.3,225.2,464.3,215.4z"/>
	<path class="st1" d="M502.7,195h12.6c7.7,0,13,3.9,13,10.7v0.1c0,7.3-6.3,11.1-13.6,11.1h-9.4v13h-2.6V195z M514.8,214.5
		c6.5,0,10.9-3.4,10.9-8.6v-0.1c0-5.5-4.3-8.4-10.6-8.4h-9.9v17.1H514.8z"/>
</g>
<path class="st2" d="M360.2,88.5V88c0-49.1,39.6-87.5,93.1-87.5c30.5,0,52,8.9,70.4,24.3L495.4,58c-12.4-10.1-24.5-15.9-41.9-15.9
	c-25,0-44.3,20.2-44.3,45.9v0.5c0,27.4,19.6,46.9,47.1,46.9c11.9,0,20.8-2.4,27.7-7V108h-33.9V73.8h79.5v75.5
	c-18.3,14.9-43.6,26.2-75.3,26.2C400.3,175.6,360.2,139.5,360.2,88.5z"/>
</svg>
